Coordinates
version=1
nRows=65
nColumns=12
inDegrees=yes

Units are S.I. units (second, meters, Newtons, ...)
Angles are in degrees

endheader
time	SC_y	SC_z	SC_x	AC_y	AC_z	AC_x	GH_y	GH_z	GH_yy	EL_x	PS_y
       0.0              -52.78          4.061          14.28           42.3          7.002          14.36          19.83          6.783         -36.47          126.4          137.1
   0.01429              -52.78          4.061          14.28           42.3          7.002          14.36          19.82          6.787         -36.46          126.4          137.1
   0.02858              -52.78          4.061          14.29           42.3          7.001          14.36          19.81          6.791         -36.44          126.4          137.1
   0.04287              -52.77          4.061           14.3           42.3          7.001          14.36           19.8          6.795         -36.43          126.4          137.1
   0.05716              -52.77           4.06          14.31           42.3          7.001          14.36          19.79            6.8         -36.42          126.4          137.1
   0.07146              -52.77           4.06          14.32           42.3          7.001          14.36          19.78          6.805          -36.4          126.4          137.1
   0.08575              -52.76           4.06          14.33           42.3            7.0          14.36          19.77           6.81         -36.39          126.4          137.1
       0.1              -52.76          4.059          14.34           42.3            7.0          14.36          19.76          6.815         -36.37          126.4          137.0
    0.1143              -52.75          4.059          14.35           42.3            7.0          14.36          19.75          6.821         -36.36          126.4          137.0
    0.1286              -52.75          4.058          14.36          42.31          6.999          14.35          19.74          6.828         -36.34          126.4          137.0
    0.1429              -52.74          4.058          14.37          42.31          6.999          14.35          19.72          6.835         -36.32          126.4          137.0
    0.1572              -52.74          4.057          14.39          42.31          6.999          14.35          19.71          6.842          -36.3          126.4          137.0
    0.1715              -52.73          4.057           14.4          42.31          6.998          14.35          19.69           6.85         -36.28          126.4          137.0
    0.1858              -52.72          4.056          14.42          42.31          6.998          14.35          19.67          6.859         -36.25          126.4          136.9
    0.2001              -52.71          4.056          14.44          42.31          6.997          14.35          19.65          6.869         -36.22          126.4          136.9
    0.2144              -52.71          4.055          14.46          42.31          6.997          14.34          19.63          6.879          -36.2          126.4          136.9
    0.2287               -52.7          4.054          14.48          42.32          6.996          14.34          19.61           6.89         -36.16          126.4          136.9
    0.2429              -52.69          4.053           14.5          42.32          6.996          14.34          19.59          6.902         -36.13          126.4          136.8
    0.2572              -52.68          4.052          14.52          42.32          6.995          14.34          19.56          6.915         -36.09          126.4          136.8
    0.2715              -52.66          4.052          14.55          42.32          6.994          14.34          19.53           6.93         -36.05          126.4          136.8
    0.2858              -52.65           4.05          14.58          42.32          6.993          14.33           19.5          6.946         -36.01          126.5          136.7
    0.3001              -52.64          4.049          14.61          42.33          6.993          14.33          19.46          6.963         -35.96          126.5          136.7
    0.3144              -52.62          4.048          14.65          42.33          6.992          14.33          19.42          6.983          -35.9          126.5          136.7
    0.3287               -52.6          4.047          14.69          42.33           6.99          14.32          19.38          7.004         -35.84          126.5          136.6
     0.343              -52.58          4.045          14.73          42.34          6.989          14.32          19.33          7.028         -35.78          126.5          136.6
    0.3573              -52.56          4.043          14.78          42.34          6.988          14.31          19.28          7.054          -35.7          126.5          136.5
    0.3716              -52.54          4.041          14.84          42.35          6.986          14.31          19.22          7.084         -35.62          126.5          136.4
    0.3859              -52.51          4.039           14.9          42.35          6.985           14.3          19.15          7.118         -35.52          126.5          136.4
    0.4001              -52.48          4.036          14.97          42.36          6.983          14.29          19.08          7.155         -35.42          126.5          136.3
    0.4144              -52.44          4.034          15.05          42.36          6.981          14.29          18.99          7.198          -35.3          126.5          136.2
    0.4287               -52.4           4.03          15.14          42.37          6.978          14.28          18.89          7.247         -35.16          126.6          136.1
     0.443              -52.36          4.026          15.25          42.38          6.975          14.27          18.78          7.304          -35.0          126.6          135.9
    0.4573               -52.3          4.022          15.37          42.39          6.972          14.25          18.65          7.369         -34.82          126.6          135.8
    0.4716              -52.24          4.017          15.51           42.4          6.968          14.24           18.5          7.444         -34.61          126.6          135.6
    0.4859              -52.17          4.011          15.67          42.42          6.963          14.22          18.32          7.532         -34.36          126.6          135.4
    0.5002              -52.08          4.004          15.87          42.43          6.958          14.21          18.11          7.637         -34.07          126.7          135.2
    0.5145              -51.98          3.996           16.1          42.45          6.952          14.18          17.86           7.76         -33.72          126.7          134.9
    0.5288              -51.86          3.986          16.38          42.48          6.944          14.16          17.57          7.909          -33.3          126.8          134.6
    0.5431              -51.71          3.974          16.71           42.5          6.935          14.12          17.21          8.088          -32.8          126.8          134.2
    0.5573              -51.53          3.959          17.12          42.54          6.924          14.08          16.77          8.307         -32.18          126.9          133.7
    0.5716              -51.31          3.941          17.62          42.58           6.91          14.03          16.22          8.578         -31.42          127.0          133.0
    0.5859              -51.03          3.918          18.25          42.64          6.893          13.97          15.55          8.915         -30.47          127.1          132.3
    0.6002              -50.68           3.89          19.05           42.7          6.871          13.89          14.69           9.34         -29.28          127.2          131.3
    0.6145              -50.24          3.854          20.05          42.79          6.843          13.79          13.61           9.88         -27.76          127.4          130.1
    0.6288              -49.67          3.807          21.34           42.9          6.808          13.67          12.22          10.57         -25.81          127.6          128.5
    0.6431              -48.94          3.748           23.0          43.04          6.762           13.5          10.44          11.46         -23.32          127.9          126.5
    0.6574              -48.01          3.672          25.11          43.21          6.704           13.3          8.167          12.59         -20.13          128.3          123.9
    0.6717              -46.83          3.576          27.77          43.44          6.631          13.03          5.306          14.02         -16.12          128.8          120.7
     0.686              -45.41           3.46          31.01          43.71          6.542          12.72          1.821          15.75         -11.24          129.3          116.7
    0.7003              -43.75          3.325          34.76          44.03          6.439          12.35         -2.219          17.77         -5.577          130.0          112.2
    0.7146              -41.96          3.179          38.83          44.37          6.327          11.95         -6.594          19.95          0.552          130.7          107.2
    0.7288              -40.16          3.033          42.89          44.72          6.216          11.54         -10.97          22.13          6.681          131.4          102.3
    0.7431              -38.51          2.898          46.65          45.04          6.113          11.18         -15.01          24.14          12.34          132.1          97.71
    0.7574              -37.08          2.782          49.88          45.31          6.024          10.86         -18.49          25.88          17.23          132.7          93.76
    0.7717              -35.91          2.686          52.54          45.53          5.951          10.59         -21.35           27.3          21.23          133.1          90.53
     0.786              -34.98           2.61          54.66          45.71          5.893          10.39         -23.63          28.44          24.42          133.5          87.95
    0.8003              -34.25          2.551          56.31          45.85          5.847          10.22         -25.41          29.32          26.92          133.8          85.94
    0.8146              -33.68          2.504           57.6          45.96          5.812           10.1          -26.8          30.02          28.86          134.0          84.37
    0.8289              -33.23          2.468          58.61          46.05          5.784          9.997         -27.88          30.56          30.38          134.2          83.14
    0.8432              -32.88           2.44           59.4          46.11          5.762          9.919         -28.73          30.98          31.57          134.4          82.18
    0.8575              -32.61          2.417          60.03          46.17          5.745          9.858         -29.41          31.32          32.52          134.5          81.41
    0.8718              -32.38          2.399          60.53          46.21          5.731          9.808         -29.95          31.59          33.28          134.6           80.8
     0.886               -32.2          2.384          60.94          46.24           5.72          9.768         -30.39          31.81           33.9          134.6           80.3
    0.9003              -32.06          2.372          61.28          46.27          5.711          9.735         -30.75          31.99           34.4          134.7          79.89
    0.9146              -31.93          2.362          61.55           46.3          5.703          9.707         -31.05          32.14          34.82          134.7          79.56
